General
Complete name                    : Transporter.3.{psp.ipod.zune}DVDRip.aaaevilacharya.m4v
Format                           : MPEG-4
Format profile                   : Base Media / Version 2
Codec ID                         : mp42
File size                        : 228 MiB
Duration                         : 1h 39mn
Overall bit rate                 : 320 Kbps
Encoded date                     : UTC 2010-12-08 20:59:50
Tagged date                      : UTC 2010-12-08 22:35:10


Video
ID                               : 1
Format                           : AVC
Format/Info                      : Advanced Video Codec
Format profile                   : Baseline@L3.0
Format settings, CABAC           : No
Format settings, ReFrames        : 1 frame
Codec ID                         : avc1
Codec ID/Info                    : Advanced Video Coding
Duration                         : 1h 39mn
Bit rate mode                    : Variable
Bit rate                         : 237 Kbps
Width                            : 480 pixels
Height                           : 208 pixels
Display aspect ratio             : 2.35:1
Frame rate mode                  : Variable
Frame rate                       : 25.000 fps
Minimum frame rate               : 12.500 fps
Maximum frame rate               : 25.000 fps
Color space                      : YUV
Chroma subsampling               : 4:2:0
Bit depth                        : 8 bits
Scan type                        : Progressive
Bits/(Pixel*Frame)               : 0.095
Stream size                      : 167 MiB (74%)
Writing library                  : x264 core 79


Audio
ID                               : 2
Format                           : AAC
Format/Info                      : Advanced Audio Codec
Format version                   : Version 4
Format profile                   : LC
Format settings, SBR             : Yes
Format settings, PS              : No
Codec ID                         : 40
Duration                         : 1h 39mn
Bit rate mode                    : Variable
Bit rate                         : 82.6 Kbps
Maximum bit rate                 : 123 Kbps
Channel(s)                       : 2 channels
Channel positions                : Front: L R
Sampling rate                    : 48.0 KHz
Stream size                      : 58.8 MiB (26%)
Encoded date                     : UTC 2010-12-08 20:59:50
Tagged date                      : UTC 2010-12-08 22:35:10

Text
ID                               : 3
Format                           : Apple text
Codec ID                         : text
Duration                         : 1h 39mn
Bit rate                         : 0
Stream size                      : 14.0 Bytes (0%)
Encoded date                     : UTC 2010-12-08 20:59:50
Tagged date                      : UTC 2010-12-08 22:35:10


Genres:
Action | Adventure | Crime | Thriller 

Storyline

Toxic waste bubbles in a ship waiting permission to dock in Odessa. Frank Martin turns down a job in Marseilles, referring it to a pal. A short time later, the pal, wounded by gunfire, crashes his car into Frank's living room and dies, leaving a young woman in the back seat. The employer of the dead man shows up, forces Frank to take the job, snaps a bracelet on his wrist that will explode if Frank gets more than 75 feet from his car, and sends Frank on a journey east with the young woman and a trunk full of something. She's Valentina, nearly mute. Can Frank figure out what's going on, deliver the package, and escape alive? And what does the ship have to do with it?

SCREENSHOTS 
http://img802.imageshack.us/img802/8075/vlcsnap2010120818h26m49.png
http://img816.imageshack.us/img816/1744/vlcsnap2010120818h24m19.png
http://img826.imageshack.us/img826/6918/vlcsnap2010120818h24m42.png
http://img52.imageshack.us/img52/1674/vlcsnap2010120818h25m01.png
http://img528.imageshack.us/img528/963/vlcsnap2010120818h25m48.png
http://img560.imageshack.us/img560/331/vlcsnap2010120818h25m54.png
http://img64.imageshack.us/img64/7892/vlcsnap2010120818h26m32.png 
http://img143.imageshack.us/img143/2906/transporter3r2greekfron.jpg
